<svg width="63" height="39" viewBox="0 0 63 39" fill="none" xmlns="http://www.w3.org/2000/svg">
<g clip-path="url(#clip0_26_65)">
<path d="M39.3977 21.9949H23.6023C22.8282 21.9949 22.2014 22.6134 22.2014 23.3772C22.2014 24.141 22.8282 24.7594 23.6023 24.7594H30.0991V37.1159C30.0991 37.8797 30.7259 38.4981 31.5 38.4981C32.2741 38.4981 32.9009 37.8797 32.9009 37.1159V24.7594H39.3977C40.1717 24.7594 40.7986 24.141 40.7986 23.3772C40.7986 22.6134 40.1717 21.9949 39.3977 21.9949Z" fill="white"/>
<path d="M49.7743 13.3847C51.9927 13.1463 53.5938 11.1791 53.3521 8.99209C53.1105 6.80322 51.1186 5.2235 48.9001 5.46195C46.6817 5.7004 45.0806 7.66759 45.3223 9.8546C45.564 12.0435 47.5559 13.6232 49.7743 13.3847Z" fill="white"/>
<path d="M55.6876 26.5813C56.2427 25.907 56.458 25.0333 56.2805 24.182L54.6492 16.4492C54.4868 15.6742 54.0262 15.011 53.354 14.5807C52.6819 14.1504 51.8795 14.0069 51.0959 14.1746C51.0959 14.1746 48.8737 14.6515 48.33 14.7782C47.8466 14.8899 43.9308 16.9056 43.9308 16.9056L40.4889 16.7528C39.4675 16.7081 38.5858 17.4961 38.5386 18.5114C38.4914 19.5285 39.29 20.3891 40.3209 20.4357L44.2329 20.609C44.2612 20.609 44.2877 20.609 44.316 20.609C44.5954 20.609 44.8748 20.5475 45.1278 20.4264L47.7201 19.1932L48.6755 23.5057H45.0013C43.3418 23.5057 41.9956 24.834 41.9956 26.4714V36.3558C41.9956 37.4978 42.9339 38.4218 44.0894 38.4218C45.2449 38.4218 46.1833 37.4959 46.1833 36.3558V28.3865C46.1833 27.9748 46.5231 27.6394 46.9404 27.6394H53.4258C54.3056 27.6394 55.1307 27.2538 55.6857 26.5795L55.6876 26.5813Z" fill="white"/>
<path d="M62.9792 16.4063C62.9792 15.5065 62.5676 14.8769 61.7275 14.7875C61.0025 14.7111 60.3435 15.2308 60.2151 15.9387L58.227 27.0266C57.9873 28.3566 56.8205 29.3216 55.4516 29.3216H49.6327C48.6302 29.3216 47.8183 30.1227 47.8183 31.1118V37.1177C47.8183 37.8815 48.4451 38.5 49.2192 38.5H61.5972C62.3713 38.5 62.9981 37.8797 62.9981 37.1159L62.9773 16.4045L62.9792 16.4063Z" fill="white"/>
<path d="M13.2257 13.3848C15.4441 13.6232 17.436 12.0416 17.6777 9.85461C17.9193 7.6676 16.3183 5.7004 14.0999 5.46195C11.8814 5.22351 9.88953 6.80509 9.64786 8.9921C9.40619 11.1791 11.0072 13.1463 13.2257 13.3848Z" fill="white"/>
<path d="M18.0005 23.5095H14.3264L15.2818 19.1969L17.874 20.4301C18.127 20.5512 18.4046 20.6127 18.6859 20.6127C18.7142 20.6127 18.7406 20.6127 18.769 20.6127L22.681 20.4394C23.7118 20.3929 24.5105 19.5322 24.4633 18.5151C24.418 17.4998 23.5344 16.7118 22.5129 16.7565L19.0711 16.9093C19.0711 16.9093 15.1553 14.8937 14.6719 14.7819C14.1282 14.6552 11.906 14.1783 11.906 14.1783C11.1224 14.0107 10.32 14.1541 9.64786 14.5844C8.97572 15.0148 8.51504 15.6779 8.35267 16.4529L6.7214 24.1857C6.54204 25.0352 6.75728 25.9107 7.31425 26.5851C7.86933 27.2594 8.6944 27.645 9.57423 27.645H16.0596C16.4769 27.645 16.8167 27.9804 16.8167 28.392V36.3614C16.8167 37.5034 17.7551 38.4273 18.9106 38.4273C20.066 38.4273 21.0044 37.5015 21.0044 36.3614V26.477C21.0044 24.8395 19.6582 23.5113 17.9986 23.5113L18.0005 23.5095Z" fill="white"/>
<path d="M13.3654 29.3216H7.54648C6.17766 29.3216 5.01085 28.3566 4.77107 27.0266L2.78297 15.9387C2.65647 15.2308 1.99754 14.7111 1.27065 14.7875C0.430472 14.8769 0.0188804 15.5065 0.0188804 16.4063L0 37.1159C0 37.8797 0.626828 38.5 1.40092 38.5H13.7789C14.553 38.5 15.1798 37.8815 15.1798 37.1177V31.1118C15.1798 30.1227 14.368 29.3216 13.3654 29.3216Z" fill="white"/>
<path d="M31.5 13.5338C35.2874 13.5338 38.3592 10.5047 38.3592 6.76595C38.3592 3.02717 35.2874 0 31.5 0C27.7126 0 24.6427 3.02903 24.6427 6.76595C24.6427 10.5029 27.7126 13.5338 31.5 13.5338ZM30.5201 3.17992C30.5201 2.64714 30.9581 2.21309 31.5 2.21309C32.0419 2.21309 32.4799 2.64528 32.4799 3.17992V5.80099H34.2792C34.8192 5.80099 35.2591 6.23317 35.2591 6.76782C35.2591 7.30246 34.8211 7.73465 34.2792 7.73465H31.5C30.96 7.73465 30.5201 7.30246 30.5201 6.76782V3.18179V3.17992Z" fill="#A12381"/>
</g>
<defs>
<clipPath id="clip0_26_65">
<rect width="63" height="38.5" fill="white"/>
</clipPath>
</defs>
</svg>
