<svg width="107" height="109" viewBox="0 0 107 109" fill="none" xmlns="http://www.w3.org/2000/svg">
<g filter="url(#filter0_d_54_34)">
<path d="M98.64 5H5V100.76H98.64V5Z" stroke="white" stroke-miterlimit="10"/>
</g>
<path d="M53.98 72.75L43.56 57C46.27 56.06 48.32 54.59 49.71 52.6C51.1 50.61 51.8 48.18 51.8 45.31C51.8 41.15 50.42 37.95 47.66 35.7C44.9 33.45 40.66 32.33 34.93 32.33H23.1C22.63 32.33 22.29 32.42 22.08 32.61C21.87 32.8 21.77 33.14 21.77 33.65V73.21C21.77 73.72 21.87 74.07 22.08 74.25C22.29 74.43 22.62 74.53 23.1 74.53H26.49C27 74.53 27.35 74.44 27.53 74.25C27.71 74.06 27.81 73.72 27.81 73.21V59.29C27.81 59.02 27.86 58.82 27.97 58.72C28.08 58.62 28.27 58.56 28.54 58.56H36.49C36.88 58.56 37.19 58.62 37.4 58.74C37.62 58.86 37.83 59.08 38.05 59.42L46.79 72.93C47.2 73.56 47.58 73.98 47.94 74.21C48.29 74.44 48.81 74.55 49.5 74.55H53.12C53.57 74.55 53.9 74.49 54.12 74.37C54.34 74.25 54.44 74.09 54.44 73.87C54.44 73.58 54.28 73.2 53.97 72.75H53.98ZM42.9 51.26C41.14 52.48 38.51 53.08 35 53.08H28.55C28.28 53.08 28.08 53.03 27.98 52.92C27.88 52.81 27.82 52.62 27.82 52.35V38.72C27.82 38.48 27.87 38.32 27.98 38.22C28.09 38.12 28.28 38.07 28.55 38.07H34.61C38.3 38.07 41.04 38.68 42.84 39.91C44.64 41.14 45.53 43.02 45.53 45.55C45.53 48.08 44.65 50.04 42.9 51.26V51.26Z" fill="white"/>
<path d="M57.32 44.99H61.06C61.79 44.99 62.15 45.35 62.15 46.08V60.86C62.15 63.78 62.74 66 63.92 67.51C65.1 69.02 66.9 69.78 69.34 69.78C71.78 69.78 73.65 69.02 74.84 67.51C76.03 66 76.64 63.78 76.64 60.86V46.08C76.64 45.35 77 44.99 77.73 44.99H81.47C82.14 44.99 82.47 45.35 82.47 46.08V61.33C82.47 65.82 81.35 69.26 79.11 71.65C76.87 74.03 73.62 75.23 69.34 75.23C65.06 75.23 61.82 74.04 59.63 71.67C57.44 69.3 56.33 65.85 56.33 61.34V46.09C56.33 45.36 56.66 45 57.33 45L57.32 44.99Z" fill="white"/>
<path d="M74.9199 34.22C75.9199 34.22 76.7199 34.51 77.2999 35.1C77.8899 35.69 78.1799 36.45 78.1799 37.4C78.1799 38.35 77.8899 39.16 77.2999 39.74C76.7099 40.32 75.9199 40.61 74.9199 40.61C73.9199 40.61 73.1899 40.32 72.6099 39.74C72.0299 39.16 71.7399 38.38 71.7399 37.4C71.7399 36.42 72.0299 35.67 72.6099 35.09C73.1899 34.51 73.9599 34.22 74.9199 34.22V34.22Z" fill="#8E2680"/>
<path d="M63.79 34.22C64.75 34.22 65.53 34.51 66.13 35.1C66.73 35.69 67.03 36.45 67.03 37.4C67.03 38.35 66.73 39.16 66.13 39.74C65.53 40.32 64.75 40.61 63.79 40.61C62.83 40.61 62.03 40.32 61.45 39.74C60.87 39.16 60.58 38.38 60.58 37.4C60.58 36.42 60.87 35.69 61.45 35.1C62.03 34.51 62.81 34.22 63.79 34.22V34.22Z" fill="#8E2680"/>
<defs>
<filter id="filter0_d_54_34" x="0.54" y="0.54" width="106.16" height="108.28" filterUnits="userSpaceOnUse" color-interpolation-filters="sRGB">
<feFlood flood-opacity="0" result="BackgroundImageFix"/>
<feColorMatrix in="SourceAlpha" type="matrix" values="0 0 0 0 0 0 0 0 0 0 0 0 0 0 0 0 0 0 127 0" result="hardAlpha"/>
<feOffset dx="1.8" dy="1.8"/>
<feGaussianBlur stdDeviation="2.88"/>
<feColorMatrix type="matrix" values="0 0 0 0 0.137255 0 0 0 0 0.121569 0 0 0 0 0.12549 0 0 0 0.25 0"/>
<feBlend mode="normal" in2="BackgroundImageFix" result="effect1_dropShadow_54_34"/>
<feBlend mode="normal" in="SourceGraphic" in2="effect1_dropShadow_54_34" result="shape"/>
</filter>
</defs>
</svg>
