<svg width="58" height="37" viewBox="0 0 58 37" fill="none" xmlns="http://www.w3.org/2000/svg">
<g clip-path="url(#clip0_26_86)">
<path d="M42.4734 32.7802H53.9079C54.2017 32.7802 54.44 32.5427 54.44 32.2463V6.93053C54.44 5.97756 53.6712 5.20786 52.7212 5.20786H43.6585C42.7117 5.20786 41.9428 5.97756 41.9428 6.92734V32.2479C41.9428 32.5427 42.1811 32.7818 42.475 32.7818L42.4734 32.7802ZM46.1477 10.2818C46.1477 9.88504 46.4702 9.56155 46.8674 9.56155H49.5139C49.911 9.56155 50.2319 9.88504 50.2319 10.2818V12.8109C50.2319 13.2077 49.9095 13.5312 49.5139 13.5312H46.8674C46.4686 13.5312 46.1477 13.2077 46.1477 12.8109V10.2818ZM46.1477 17.5566C46.1477 17.1598 46.4702 16.8363 46.8674 16.8363H49.5139C49.911 16.8363 50.2319 17.1598 50.2319 17.5566V20.0904C50.2319 20.4904 49.9095 20.8123 49.5139 20.8123H46.8674C46.4686 20.8123 46.1477 20.4904 46.1477 20.0904V17.5566ZM46.1477 24.8377C46.1477 24.4377 46.4702 24.1142 46.8674 24.1142H49.5139C49.911 24.1142 50.2319 24.4377 50.2319 24.8377V27.3651C50.2319 27.7635 49.9095 28.087 49.5139 28.087H46.8674C46.4686 28.087 46.1477 27.7635 46.1477 27.3651V24.8377Z" fill="white"/>
<path d="M4.09372 32.7802H15.5282C15.8221 32.7802 16.0604 32.5427 16.0604 32.2463V6.93053C16.0604 5.97756 15.2915 5.20786 14.3415 5.20786H5.27879C4.332 5.20786 3.56314 5.97756 3.56314 6.92734V32.2479C3.56314 32.5427 3.80143 32.7818 4.09531 32.7818L4.09372 32.7802ZM7.76807 10.2818C7.76807 9.88504 8.09054 9.56155 8.48768 9.56155H11.1342C11.5314 9.56155 11.8523 9.88504 11.8523 10.2818V12.8109C11.8523 13.2077 11.5314 13.5312 11.1342 13.5312H8.48768C8.08896 13.5312 7.76807 13.2077 7.76807 12.8109V10.2818ZM7.76807 17.5566C7.76807 17.1598 8.09054 16.8363 8.48768 16.8363H11.1342C11.5314 16.8363 11.8523 17.1598 11.8523 17.5566V20.0904C11.8523 20.4904 11.5314 20.8123 11.1342 20.8123H8.48768C8.08896 20.8123 7.76807 20.4904 7.76807 20.0904V17.5566ZM7.76807 24.8377C7.76807 24.4377 8.09054 24.1142 8.48768 24.1142H11.1342C11.5314 24.1142 11.8523 24.4377 11.8523 24.8377V27.3651C11.8523 27.7635 11.5314 28.087 11.1342 28.087H8.48768C8.08896 28.087 7.76807 27.7635 7.76807 27.3651V24.8377Z" fill="white"/>
<path d="M31.1803 27.0321V32.2479C31.1819 32.5427 31.4202 32.7818 31.714 32.7818H39.0151C39.309 32.7818 39.5472 32.5443 39.5472 32.2479V1.7402C39.5472 0.777672 38.7704 0 37.8125 0H20.189C19.2327 0 18.4575 0.777672 18.4575 1.73701V32.2479C18.4575 32.5427 18.6958 32.7818 18.9897 32.7818H26.2859C26.5798 32.7818 26.8181 32.5443 26.8181 32.2479V27.0321C26.8181 26.5986 27.1692 26.2464 27.6028 26.2464H30.3987C30.8324 26.2464 31.1835 26.5986 31.1835 27.0321H31.1803ZM27.1152 22.221C27.1152 22.621 26.7927 22.9445 26.3955 22.9445H23.7506C23.3534 22.9445 23.0325 22.621 23.0325 22.221V19.6904C23.0325 19.2936 23.3534 18.9701 23.7506 18.9701H26.3955C26.7927 18.9701 27.1152 19.2936 27.1152 19.6904V22.221ZM27.1152 14.9431C27.1152 15.3415 26.7927 15.665 26.3955 15.665H23.7506C23.3534 15.665 23.0325 15.3415 23.0325 14.9431V12.4157C23.0325 12.0173 23.3534 11.6938 23.7506 11.6938H26.3955C26.7927 11.6938 27.1152 12.0173 27.1152 12.4157V14.9431ZM27.1152 7.66677C27.1152 8.06357 26.7927 8.38707 26.3955 8.38707H23.7506C23.3534 8.38707 23.0325 8.06357 23.0325 7.66677V5.13774C23.0325 4.73775 23.3534 4.41425 23.7506 4.41425H26.3955C26.7927 4.41425 27.1152 4.73775 27.1152 5.13774V7.66677ZM30.8864 5.13774C30.8864 4.73775 31.2089 4.41425 31.606 4.41425H34.251C34.6481 4.41425 34.9706 4.73775 34.9706 5.13774V7.66677C34.9706 8.06357 34.6481 8.38707 34.251 8.38707H31.606C31.2089 8.38707 30.8864 8.06357 30.8864 7.66677V5.13774ZM30.8864 12.4157C30.8864 12.0173 31.2089 11.6938 31.606 11.6938H34.251C34.6481 11.6938 34.9706 12.0173 34.9706 12.4157V14.9431C34.9706 15.3415 34.6481 15.665 34.251 15.665H31.606C31.2089 15.665 30.8864 15.3415 30.8864 14.9431V12.4157ZM30.8864 19.6888C30.8864 19.292 31.2089 18.9685 31.606 18.9685H34.251C34.6481 18.9685 34.9706 19.292 34.9706 19.6888V22.2194C34.9706 22.6194 34.6481 22.9429 34.251 22.9429H31.606C31.2089 22.9429 30.8864 22.6194 30.8864 22.2194V19.6888Z" fill="white"/>
<path d="M57.3312 34.4837H0.668785C0.299425 34.4837 0 34.7841 0 35.1546V36.3275C0 36.698 0.299425 36.9984 0.668785 36.9984H57.3312C57.7006 36.9984 58 36.698 58 36.3275V35.1546C58 34.7841 57.7006 34.4837 57.3312 34.4837Z" fill="#A12381"/>
</g>
<defs>
<clipPath id="clip0_26_86">
<rect width="58" height="37" fill="white"/>
</clipPath>
</defs>
</svg>
