<svg width="44" height="43" viewBox="0 0 44 43" fill="none" xmlns="http://www.w3.org/2000/svg">
<g clip-path="url(#clip0_26_106)">
<path d="M6.88084 15.8709L4.63379 8.47582C4.9233 8.20944 5.12023 7.84421 5.16568 7.43374L8.2257 6.36653C8.25263 6.65637 8.30649 6.94788 8.39738 7.23437C8.43104 7.3416 8.55223 7.39688 8.65827 7.35835L16.1855 4.61074C16.2915 4.57221 16.347 4.45158 16.3033 4.34771C15.6165 2.72931 14.0091 1.75089 12.3192 1.79278L11.826 0.454156C11.6947 0.0956271 11.2924 -0.0903387 10.9322 0.0420154L9.70016 0.491014C9.33996 0.621693 9.15313 1.02211 9.2861 1.38063L9.77927 2.71925C9.11946 3.24867 8.64312 3.95903 8.39738 4.74813L4.67924 6.04654C4.37458 5.74497 3.95379 5.55733 3.48923 5.55733C2.55506 5.55733 1.79932 6.31124 1.79932 7.2394C1.79932 8.07876 2.41704 8.77068 3.22329 8.89969L5.42489 16.144C4.37795 16.6131 3.62893 17.6233 3.54646 18.8212C3.53804 18.9385 3.63398 19.039 3.75349 19.039H9.70521C9.82303 19.039 9.91897 18.9385 9.91056 18.8212C9.80115 17.2196 8.50005 15.948 6.88252 15.8709H6.88084Z" fill="white"/>
<path d="M14.6571 5.9509L10.6915 7.39506C11.0972 8.47735 12.3074 9.03022 13.3964 8.63149C14.4854 8.23442 15.0476 7.03654 14.6571 5.95257V5.9509Z" fill="#A12381"/>
<path d="M14.445 9.70374C14.3289 9.38709 13.9754 9.22291 13.6573 9.34018C13.3392 9.45578 13.1742 9.80761 13.2921 10.1243L13.7549 11.3825C13.8458 11.6304 14.0815 11.7845 14.3323 11.7845C14.403 11.7845 14.4736 11.7728 14.5443 11.7477C14.8625 11.6321 15.0274 11.2803 14.9096 10.9636L14.4467 9.70541L14.445 9.70374Z" fill="#A12381"/>
<path d="M17.3098 8.12554L16.0878 7.56094C15.7798 7.41853 15.4146 7.55256 15.2715 7.85915C15.1284 8.16574 15.2631 8.5293 15.5711 8.67171L16.7931 9.2363C16.8773 9.27484 16.9648 9.29327 17.0506 9.29327C17.2829 9.29327 17.5051 9.16259 17.6078 8.93809C17.7508 8.6315 17.6162 8.26794 17.3081 8.12554H17.3098Z" fill="#A12381"/>
<path d="M11.4642 9.24972C11.1561 9.10731 10.7909 9.24134 10.6478 9.54793L10.0806 10.7643C9.93751 11.0708 10.0722 11.4344 10.3802 11.5768C10.4643 11.6153 10.5519 11.6338 10.6377 11.6338C10.87 11.6338 11.0922 11.5031 11.1965 11.2786L11.7638 10.0623C11.9068 9.75568 11.7722 9.39212 11.4642 9.24972Z" fill="#A12381"/>
<path d="M28.6023 20.6053H0.747332C0.32317 20.6053 0 20.9521 0 21.3492V42.2561C0 42.6532 0.32317 43 0.747332 43H3.71309C4.13726 43 4.48567 42.6532 4.48567 42.2561V25.0702H27.7809L28.604 20.6053H28.6023Z" fill="white"/>
<path d="M43.2527 20.6053H36.2018L35.3804 25.0702H39.516V42.2561C39.516 42.6532 39.8644 43 40.2886 43H43.2527C43.6768 43 44 42.6532 44 42.2561V21.3492C44 20.9521 43.6768 20.6053 43.2527 20.6053Z" fill="white"/>
<path d="M35.5084 12.7244C35.67 11.8482 35.0893 11.0072 34.209 10.8463C33.3489 10.6905 32.4854 11.2618 32.3238 12.1397L29.3378 28.2618H18.0706C17.1769 28.2618 16.4514 28.9839 16.4514 29.8735C16.4514 30.7631 17.1769 31.4852 18.0706 31.4852H19.0166L17.4091 41.1236C17.2627 42.0015 17.8586 42.8325 18.7405 42.9782C18.8297 42.9933 18.919 43 19.0082 43C19.7858 43 20.4725 42.4404 20.6038 41.6513L22.2988 31.4835H29.3126L31.0092 41.6513C31.1405 42.4404 31.8273 43 32.6049 43C32.6941 43 32.7833 42.9933 32.8725 42.9782C33.7545 42.8325 34.352 42.0031 34.2039 41.1236L32.3305 29.8886L35.5084 12.7244Z" fill="#A12381"/>
</g>
<defs>
<clipPath id="clip0_26_106">
<rect width="44" height="43" fill="white"/>
</clipPath>
</defs>
</svg>
